<?xml version="1.0" standalone="no"?><!DOCTYPE svg PUBLIC "-//W3C//DTD SVG 1.1//EN" "http://www.w3.org/Graphics/SVG/1.1/DTD/svg11.dtd"><svg t="1777281824795" class="icon" viewBox="0 0 1024 1024" version="1.1" xmlns="http://www.w3.org/2000/svg" p-id="10918" xmlns:xlink="http://www.w3.org/1999/xlink" width="128" height="128"><path d="M891.705806 414.554839C890.962581 424.712258 903.514839 429.336774 909.543226 436.356129 945.630968 478.224516 970.157419 553.455484 967.349677 628.603871 958.183226 845.130323 768.082581 930.60129 543.215484 929.858065 549.574194 961.156129 558.658065 989.729032 565.016774 1020.696774 394.24 966.193548 225.445161 909.708387 53.677419 856.196129 95.95871 571.458065 133.698065 282.178065 178.539355 0 233.868387 17.094194 301.419355 32.206452 364.84129 49.548387 387.220645 55.659355 390.276129 57.806452 414.389677 49.548387 497.620909 20.179046 585.955164 8.041514 674.023226 13.873548 808.464516 24.196129 917.80129 126.67871 927.710968 256 932.665806 324.624516 918.131613 364.510968 891.705806 414.554839L891.705806 414.554839ZM844.139355 230.234839C839.267097 186.549677 809.538065 144.185806 784.68129 122.88 754.496508 99.404227 718.981511 83.745858 681.290323 77.295484 667.334194 75.148387 663.122581 74.24 673.032258 79.277419 685.171613 85.223226 697.806452 86.379355 714.322581 97.114839 758.99871 125.109677 789.553548 183.907097 779.726452 265.579355 774.193548 212.562581 758.750968 168.134194 728.196129 134.771613 703.421935 107.354839 649.992258 76.056774 605.316129 73.331613 567.411613 71.019355 526.616774 82.580645 490.694194 90.83871 456.383225 99.327464 422.626638 109.917766 389.615484 122.549677 344.526452 106.033548 293.243871 96.04129 244.934194 82.910968 211.021075 308.411183 177.988817 534.461935 145.837419 761.063226 247.246452 791.783226 346.83871 824.32 447.091613 856.196129 443.458065 838.028387 436.851613 823.163871 435.2 802.683871 642.312258 819.695484 870.895484 795.829677 883.117419 598.544516 889.063226 503.08129 843.065806 418.188387 744.381935 418.188387 799.050323 377.723871 855.452903 330.900645 844.139355 230.234839L844.139355 230.234839ZM406.131613 394.735484C404.48 354.105806 401.424516 314.88 397.873548 275.819355 437.429677 255.917419 530.002581 219.994839 572.283871 261.945806 593.176774 282.83871 600.856774 328.010323 576.247742 355.096774 543.050323 391.845161 476.985806 391.845161 406.131613 394.735484L406.131613 394.735484ZM421.987097 680.134194C415.628387 654.12129 411.169032 626.291613 406.131613 598.874839 442.88 583.927742 491.354839 554.529032 540.903226 553.290323 569.393548 552.629677 590.451613 563.530323 592.433548 588.965161 598.709677 660.645161 495.31871 677.16129 421.987097 680.134194L421.987097 680.134194ZM556.75871 398.699355C518.028387 439.989677 435.778065 456.505806 346.673548 454.193548 353.940645 399.36 363.189677 346.83871 370.456774 291.674839 373.677419 334.699355 373.181935 381.44 374.420645 426.446452 440.237419 437.016774 516.129032 425.868387 556.75871 398.699355L556.75871 398.699355Z" fill="#e98f36" p-id="10919"></path></svg>