<?xml version="1.0" encoding="UTF-8"?>
<svg data-name="图层 1" xmlns="http://www.w3.org/2000/svg" viewBox="0 0 444.44 441.44">
  <path fill="#ffffff" d="m444.43,219.87c0,53.01.03,106.02-.02,159.03-.01,14.61-3.15,28.25-11.33,39.82-10.18,14.42-23.64,22.29-39.85,22.5-31.92.41-63.85.11-95.78.16-2.09,0-3.5-.74-4.83-2.64-9.71-13.95-19.53-27.81-29.29-41.72-.15-.21-.26-.45-.36-.71-.26-.65.05-1.41.64-1.65.36-.14.71-.25,1.07-.25,14.29-.04,28.58-.04,42.87-.04,14.75,0,29.5.02,44.24-.04.76,0,1.51-.26,2.27-.53.62-.22.93-1,.67-1.67-.32-.83-.65-1.65-1.16-2.28-8.3-10.33-16.69-20.58-25.02-30.89-9.04-11.18-18.03-22.41-27.05-33.61-6.24-7.74-12.47-15.48-18.73-23.2-10.61-13.08-21.23-26.15-31.85-39.22-6.57-8.1-13.15-16.2-19.72-24.29-3.55-4.38-7.08-8.78-10.67-13.12-1.39-1.67-.93-2.99.27-4.42,3.92-4.7,7.81-9.43,11.71-14.16,11.79-14.27,23.58-28.55,35.38-42.81,10.99-13.29,22.01-26.54,33-39.83,12.2-14.75,24.39-29.52,36.55-44.32,1.26-1.53,2.62-2.27,4.47-2.27,17.5.04,35.01.02,52.51.06.41,0,.81.14,1.22.31.59.25.87,1.01.61,1.66-.18.45-.38.89-.66,1.23-8.44,10.29-16.93,20.54-25.4,30.79-15.65,18.94-31.29,37.88-46.95,56.8-9.29,11.22-18.62,22.4-27.94,33.59-5,6-10.03,11.97-15,18-2.56,3.11-2.49,3.35.11,6.54,15.35,18.85,30.67,37.72,46.02,56.57,11.88,14.59,23.78,29.15,35.66,43.74,12.1,14.86,24.18,29.75,36.29,44.59.24.29.54.51.86.7.56.34,1.25.06,1.5-.59.22-.57.42-1.15.42-1.72.05-18.02.04-36.04.04-54.05,0-80.63,0-161.27,0-241.9,0-8.53-2.37-15.85-8.64-20.97-4.52-3.69-9.78-4.9-15.27-4.9-35.53-.01-71.06,0-106.59-.01-13.24,0-26.49.2-39.73-.06-12.44-.24-22.26,5.58-30.52,15.65-6.38,7.79-12.87,15.47-19.28,23.23-10.8,13.08-21.56,26.2-32.36,39.29-6.67,8.09-13.38,16.15-20.06,24.23-11.71,14.16-23.41,28.32-35.12,42.48-6.73,8.13-13.48,16.24-20.21,24.38-11.98,14.48-23.94,28.97-35.92,43.46-11.52,13.94-23.05,27.88-34.57,41.82-.36.43-.72.88-1.12,1.25-1.03.97-1.67.72-1.78-.84-.05-.67-.04-1.34-.04-2.01,0-98.5,0-197,0-295.51C.03.26.17.04,4.87.04c12.98,0,25.96.07,38.93.13,2.25,0,2.93.96,2.9,4.16-.04,5.65-.21,11.3-.2,16.95.04,18,.2,36,.21,54.01,0,9.97-.24,19.94-.26,29.91-.05,22.7-.04,45.39,0,68.09,0,.67.25,1.34.51,2.01.25.62.9.89,1.44.61s1.04-.57,1.41-1.01c8.25-9.98,16.44-20.03,24.67-30.04,6.44-7.83,12.91-15.62,19.37-23.43,13.4-16.23,26.79-32.47,40.19-48.69,6.55-7.93,13.08-15.86,19.67-23.74,8.21-9.83,16.22-19.88,24.75-29.33C189.33,7.62,202.53.85,217.8.44c14.67-.39,29.35-.11,44.03-.16,22.48-.07,44.97-.19,67.45-.24,20.06-.04,40.12-.05,60.18,0,10.37.03,20.39,1.98,29.49,8.01,15.48,10.25,24.46,25.53,25.01,45.89.69,25.96.4,51.95.45,77.93.05,29.33.01,58.67.02,88ZM234.21,76.74c-3.17-.09-5.42,1.03-7.54,3.66-8.8,10.92-17.74,21.71-26.63,32.54-5.94,7.24-11.9,14.47-17.82,21.73-12.56,15.39-25.09,30.8-37.65,46.19-6.99,8.57-13.99,17.12-21.02,25.65-1.41,1.71-1.43,4.36-.05,6.11,2.31,2.94,4.56,5.94,6.85,8.9,9.86,12.74,19.73,25.48,29.59,38.22,9.08,11.74,18.15,23.49,27.25,35.2,9.53,12.28,19.11,24.51,28.65,36.79,8.54,10.99,17.05,22.01,25.54,33.05,1.31,1.7,2.8,2.42,4.81,2.4,8.85-.08,17.7-.02,26.55-.02,8.19,0,16.39,0,24.58-.04.17,0,.35-.04.52-.09.71-.22,1.04-1.15.64-1.85-.06-.11-.13-.22-.21-.32-2.15-2.81-4.35-5.57-6.51-8.36-16.78-21.58-33.56-43.17-50.34-64.76-15.65-20.14-31.3-40.28-46.95-60.42-4.77-6.14-9.51-12.29-14.31-18.4-1.27-1.62-1.41-3.05.01-4.65,1.21-1.36,2.29-2.87,3.46-4.27,11.92-14.34,23.87-28.63,35.75-43.01,10.09-12.21,20.07-24.53,30.14-36.76,12.22-14.84,24.49-29.62,36.71-44.45.22-.27.4-.58.57-.91.34-.67.06-1.52-.59-1.78-.36-.14-.72-.25-1.08-.26-8.85-.05-17.7-.03-26.55-.03-8.13,0-16.26.16-24.38-.07ZM.01,394.43c0,14.44,0,28.88,0,43.33,0,3.18.33,3.59,2.98,3.59,13.63.01,27.27-.02,40.9.02,2.09,0,2.93-.88,2.93-3.29.04-25,.14-50,.22-75,.03-7.89.04-15.78.13-23.67,0-.44.14-.89.31-1.33.26-.67.98-.92,1.53-.56.35.23.68.48.94.8,2.03,2.52,3.98,5.14,5.96,7.72,11.55,15.12,23.1,30.24,34.63,45.38,12.04,15.81,24.08,31.64,36.05,47.52,1.33,1.77,2.76,2.44,4.75,2.43,13.63-.06,27.27-.04,40.9-.04.52,0,1.06.06,1.57-.05.1-.02.19-.05.29-.09.68-.26.96-1.24.51-1.88,0,0,0,0,0-.01-1.21-1.66-2.47-3.28-3.7-4.92-8.5-11.33-16.98-22.68-25.51-33.98-11.13-14.74-22.32-29.43-33.46-44.17-6.95-9.2-13.82-18.49-20.77-27.69-5.84-7.74-11.76-15.4-17.61-23.13-5.6-7.39-11.19-14.79-16.72-22.23-1.39-1.87-2.44-1.92-3.92-.06-5.56,7.02-11.21,13.97-16.85,20.91-11.38,13.99-22.77,27.98-34.21,41.9C.5,347.61,0,349.34,0,351.55c.05,14.29.02,28.59.02,42.88h-.01Zm239.69,46.9c8.19,0,16.38.02,24.58-.03.33,0,.66-.08.99-.18.65-.21.97-1.02.69-1.72-.16-.4-.34-.78-.58-1.11-1.83-2.53-3.74-4.98-5.61-7.46-12.15-16.1-24.29-32.21-36.46-48.29-11.23-14.84-22.52-29.62-33.74-44.46-7.9-10.44-15.71-20.96-23.61-31.4-11.19-14.78-22.44-29.51-33.64-44.27-8.97-11.82-17.91-23.67-26.87-35.5-1.51-2-4.04-2.05-5.62-.12-8.05,9.87-16.07,19.77-24.16,29.6-1.42,1.73-1.14,2.93.11,4.56,8.89,11.53,17.74,23.1,26.54,34.72,11.23,14.83,22.36,29.77,33.61,44.59,14.54,19.17,29.15,38.26,43.72,57.39,10.54,13.84,21.03,27.74,31.67,41.49.93,1.21,2.78,2.07,4.22,2.11,8.06.2,16.12.1,24.18.1v-.02Z"/>
</svg>